<svg width="24" height="24" stroke="currentColor" viewBox="0 0 24 24" fill="none" xmlns="http://www.w3.org/2000/svg">
    <path d="M3.47319 8.18676C2.71024 8.79321 2.22117 10.0746 2.38745 11.0332L3.68838 18.8192C3.92313 20.2081 5.2534 21.333 6.66193 21.333H17.6171C19.0159 21.333 20.3559 20.1983 20.5907 18.8192L21.8916 11.0332C22.0481 10.0746 21.559 8.79321 20.8059 8.18676L14.0273 2.76788C12.9807 1.92667 11.2886 1.92666 10.2517 2.75809L3.47319 8.18676Z"
          stroke-width="1.46721" stroke-linecap="round" stroke-linejoin="round"/>
    <path fill-rule="evenodd" clip-rule="evenodd"
          d="M12.1397 15.1612C10.7892 15.1612 9.69434 14.0664 9.69434 12.7159C9.69434 11.3653 10.7892 10.2705 12.1397 10.2705C13.4902 10.2705 14.585 11.3653 14.585 12.7159C14.585 14.0664 13.4902 15.1612 12.1397 15.1612Z"
          stroke-width="1.46721" stroke-linecap="round" stroke-linejoin="round"/>
</svg>
